<?xml version="1.0" encoding="UTF-8" standalone="no"?>
<!-- Generator: Adobe Illustrator 21.1.0, SVG Export Plug-In . SVG Version: 6.00 Build 0)  -->

<svg
   xmlns:dc="http://purl.org/dc/elements/1.1/"
   xmlns:cc="http://creativecommons.org/ns#"
   xmlns:rdf="http://www.w3.org/1999/02/22-rdf-syntax-ns#"
   xmlns:svg="http://www.w3.org/2000/svg"
   xmlns="http://www.w3.org/2000/svg"
   xmlns:sodipodi="http://sodipodi.sourceforge.net/DTD/sodipodi-0.dtd"
   xmlns:inkscape="http://www.inkscape.org/namespaces/inkscape"
   version="1.1"
   id="Capa_1"
   x="0px"
   y="0px"
   viewBox="0 0 240 240"
   style="enable-background:new 0 0 240 234;"
   xml:space="preserve"
   sodipodi:docname="aftereffects-line.svg"
   inkscape:version="0.92.4 (5da689c313, 2019-01-14)"><metadata
   id="metadata3764"><rdf:RDF><cc:Work
       rdf:about=""><dc:format>image/svg+xml</dc:format><dc:type
         rdf:resource="http://purl.org/dc/dcmitype/StillImage" /><dc:title /></cc:Work></rdf:RDF></metadata><defs
   id="defs3762" /><sodipodi:namedview
   pagecolor="#ffffff"
   bordercolor="#666666"
   borderopacity="1"
   objecttolerance="10"
   gridtolerance="10"
   guidetolerance="10"
   inkscape:pageopacity="0"
   inkscape:pageshadow="2"
   inkscape:window-width="1920"
   inkscape:window-height="1057"
   id="namedview3760"
   showgrid="false"
   inkscape:zoom="3.7948718"
   inkscape:cx="45.689189"
   inkscape:cy="116.49998"
   inkscape:window-x="-8"
   inkscape:window-y="-8"
   inkscape:window-maximized="1"
   inkscape:current-layer="layer3"
   showguides="false" />
<style
   type="text/css"
   id="style3753">
	.st1{fill:#D291FF;}
</style>
<g
   id="g3757">
	
</g><g
   inkscape:groupmode="layer"
   id="layer1"
   inkscape:label="Back"><g
     id="g6059"
     transform="scale(1,1.0247748)"
     style="opacity:1"><path
       style="fill:#d291ff;stroke-width:1.01231158"
       d="M 0 0 L 0 239.79688 L 240 239.79688 L 240 0 L 0 0 z M 25.707031 24.216797 L 214.29297 24.216797 L 214.29297 215.58008 L 25.707031 215.58008 L 25.707031 24.216797 z "
       transform="scale(1,0.97582415)"
       id="path6055" /></g></g><g
   inkscape:groupmode="layer"
   id="layer3"
   inkscape:label="AE"
   style="display:inline"><g
     id="g6035"
     transform="matrix(0.95,0,0,0.95,5.9331106,17.4625)"><g
       transform="translate(-15.619834,-17.655405)"
       id="g6027"><path
         style="fill:#d291ff;stroke-width:0.94999999"
         d="M 79.328125 70.791016 C 78.874606 70.791016 78.603516 71.061745 78.603516 71.695312 C 78.422091 76.220794 78.148874 77.488013 77.695312 79.117188 L 51.933594 168.99414 C 51.752168 170.08026 51.934674 170.35156 52.841797 170.35156 L 66.175781 170.35156 C 67.082739 170.35156 67.355685 170.07955 67.537109 169.35547 L 74.703125 142.29297 L 103.73047 142.29297 L 111.25977 169.44727 C 111.44119 170.08084 111.89539 170.35156 112.62109 170.35156 L 127.58789 170.35156 C 128.31349 170.35156 128.49587 169.89986 128.31445 169.17578 L 99.466797 71.695312 C 99.285375 70.971236 99.013896 70.791016 98.378906 70.791016 L 79.328125 70.791016 z M 89.035156 85.091797 L 89.216797 85.091797 C 91.484599 95.68142 97.65342 117.58429 100.19336 127.63086 L 78.421875 127.63086 C 82.141078 113.60187 87.130207 95.68142 89.035156 85.091797 z "
         transform="matrix(1.0526316,0,0,1.0526316,9.3744544,-0.72617395)"
         id="path3762" /></g><g
       transform="translate(-15.81081,-17.6554)"
       id="g6023"><path
         style="fill:#d291ff;stroke-width:0.94999999"
         d="M 160.78516 95.5 C 141.28202 95.5 130.21484 112.96785 130.21484 134.32812 C 130.21484 154.05923 139.19454 171.70898 163.14258 171.70898 C 170.58098 171.70898 176.5692 170.62279 181.37695 168.26953 C 182.01194 167.81698 182.2832 167.36409 182.2832 166.45898 L 182.2832 155.14648 C 182.2832 154.33193 181.8303 154.24019 181.19531 154.51172 C 176.38756 156.59343 171.76023 157.31836 166.4082 157.31836 C 152.61994 157.31836 146.81423 149.08209 146.63281 136.86328 L 170.40039 136.95312 C 178.38307 136.95312 183.73458 136.59184 185.54883 136.32031 C 186.27452 136.1393 186.54709 135.86666 186.72852 135.14258 C 187.18207 133.4229 187.45312 129.89329 187.45312 125.54883 C 187.45313 112.06289 180.56042 95.5 160.78516 95.5 z M 160.14844 108.71484 C 169.58252 108.71484 170.18705 116.82475 171.94141 122.65234 C 172.09027 123.14686 171.75977 123.55784 171.75977 124.19141 C 171.30621 124.37243 169.67319 124.37305 165.04688 124.37305 L 146.81445 124.37305 C 147.72158 116.31769 151.44006 108.71484 160.14844 108.71484 z "
         transform="matrix(1.0526316,0,0,1.0526316,9.5654304,-0.72617895)"
         id="path3758" /></g></g></g>
</svg>