<?xml version="1.0" encoding="utf-8"?>
<!-- Generator: Adobe Illustrator 16.0.0, SVG Export Plug-In . SVG Version: 6.00 Build 0)  -->
<!DOCTYPE svg PUBLIC "-//W3C//DTD SVG 1.1//EN" "http://www.w3.org/Graphics/SVG/1.1/DTD/svg11.dtd">
<svg version="1.1" id="Layer_1" xmlns="http://www.w3.org/2000/svg" xmlns:xlink="http://www.w3.org/1999/xlink" x="0px" y="0px"
	 width="767.5px" height="767.67px" viewBox="16.25 7.688 767.5 767.67" enable-background="new 16.25 7.688 767.5 767.67"
	 xml:space="preserve">
<g>
	<g>
		<g>
			<g>
				<g>
					<defs>
						<path id="SVGID_1_" d="M672.813,702.374L672.813,702.374l-51.25-88.438C696.25,550.812,743.75,456.749,743.75,351.438
							C743.75,161.75,589.688,7.688,400,7.688S56.25,161.75,56.25,351.438c0,105.312,47.5,199.687,122.188,262.812l-51.25,88.438
							c-1.563,2.813-2.5,5.625-2.813,8.75L120,769.249c-0.313,2.188,0.938,4.063,2.813,5.313l0,0l0,0
							c1.875,1.25,4.063,0.938,5.938-0.313l48.125-32.5c2.5-1.875,4.688-4.063,6.25-6.563l0,0l48.438-83.75
							C281.25,679.562,338.75,695.499,400,695.499s118.75-16.25,168.75-44.375l48.438,83.75c1.563,2.813,3.75,5,6.25,6.563
							l48.125,32.813c1.875,1.25,4.063,1.25,5.938,0.313l0,0l0,0c1.875-1.25,2.813-3.125,2.813-5.313l-4.375-57.813
							C675.313,708.312,674.688,705.187,672.813,702.374z"/>
					</defs>
					<clipPath id="SVGID_2_">
						<use xlink:href="#SVGID_1_"  overflow="visible"/>
					</clipPath>
					<path clip-path="url(#SVGID_2_)" fill="#7CB342" d="M400,7.688c-189.688,0-343.75,154.063-343.75,343.75H400h343.75
						C744.063,161.438,590,7.688,400,7.688z"/>
				</g>
			</g>
			<g>
				<g>
					<defs>
						<path id="SVGID_3_" d="M672.813,702.374L672.813,702.374l-51.25-88.438C696.25,550.812,743.75,456.749,743.75,351.438
							C743.75,161.75,589.688,7.688,400,7.688S56.25,161.75,56.25,351.438c0,105.312,47.5,199.687,122.188,262.812l-51.25,88.438
							c-1.563,2.813-2.5,5.625-2.813,8.75L120,769.249c-0.313,2.188,0.938,4.063,2.813,5.313l0,0l0,0
							c1.875,1.25,4.063,0.938,5.938-0.313l48.125-32.5c2.5-1.875,4.688-4.063,6.25-6.563l0,0l48.438-83.75
							C281.25,679.562,338.75,695.499,400,695.499s118.75-16.25,168.75-44.375l48.438,83.75c1.563,2.813,3.75,5,6.25,6.563
							l48.125,32.813c1.875,1.25,4.063,1.25,5.938,0.313l0,0l0,0c1.875-1.25,2.813-3.125,2.813-5.313l-4.375-57.813
							C675.313,708.312,674.688,705.187,672.813,702.374z"/>
					</defs>
					<clipPath id="SVGID_4_">
						<use xlink:href="#SVGID_3_"  overflow="visible"/>
					</clipPath>
					<path clip-path="url(#SVGID_4_)" fill="#8BC34A" d="M400,351.438H56.25c0,189.687,154.063,343.749,343.75,343.749
						s343.75-154.063,343.75-343.749H400z"/>
				</g>
			</g>
			<g>
				<g>
					<defs>
						<path id="SVGID_5_" d="M672.813,702.374L672.813,702.374l-51.25-88.438C696.25,550.812,743.75,456.749,743.75,351.438
							C743.75,161.75,589.688,7.688,400,7.688S56.25,161.75,56.25,351.438c0,105.312,47.5,199.687,122.188,262.812l-51.25,88.438
							c-1.563,2.813-2.5,5.625-2.813,8.75L120,769.249c-0.313,2.188,0.938,4.063,2.813,5.313l0,0l0,0
							c1.875,1.25,4.063,0.938,5.938-0.313l48.125-32.5c2.5-1.875,4.688-4.063,6.25-6.563l0,0l48.438-83.75
							C281.25,679.562,338.75,695.499,400,695.499s118.75-16.25,168.75-44.375l48.438,83.75c1.563,2.813,3.75,5,6.25,6.563
							l48.125,32.813c1.875,1.25,4.063,1.25,5.938,0.313l0,0l0,0c1.875-1.25,2.813-3.125,2.813-5.313l-4.375-57.813
							C675.313,708.312,674.688,705.187,672.813,702.374z"/>
					</defs>
					<clipPath id="SVGID_6_">
						<use xlink:href="#SVGID_5_"  overflow="visible"/>
					</clipPath>
					<path opacity="0.2" clip-path="url(#SVGID_6_)" fill="#FFFFFF" enable-background="new    " d="M400,11.438
						c189.063,0,342.813,152.813,343.75,341.875c0-0.625,0-1.25,0-1.875C743.75,161.75,589.688,7.688,400,7.688
						C210.313,7.375,56.25,161.438,56.25,351.438c0,0.625,0,1.25,0,1.875C57.5,164.563,210.938,11.438,400,11.438z"/>
				</g>
			</g>
			<g>
				<g>
					<defs>
						<path id="SVGID_7_" d="M672.813,702.374L672.813,702.374l-51.25-88.438C696.25,550.812,743.75,456.749,743.75,351.438
							C743.75,161.75,589.688,7.688,400,7.688S56.25,161.75,56.25,351.438c0,105.312,47.5,199.687,122.188,262.812l-51.25,88.438
							c-1.563,2.813-2.5,5.625-2.813,8.75L120,769.249c-0.313,2.188,0.938,4.063,2.813,5.313l0,0l0,0
							c1.875,1.25,4.063,0.938,5.938-0.313l48.125-32.5c2.5-1.875,4.688-4.063,6.25-6.563l0,0l48.438-83.75
							C281.25,679.562,338.75,695.499,400,695.499s118.75-16.25,168.75-44.375l48.438,83.75c1.563,2.813,3.75,5,6.25,6.563
							l48.125,32.813c1.875,1.25,4.063,1.25,5.938,0.313l0,0l0,0c1.875-1.25,2.813-3.125,2.813-5.313l-4.375-57.813
							C675.313,708.312,674.688,705.187,672.813,702.374z"/>
					</defs>
					<clipPath id="SVGID_8_">
						<use xlink:href="#SVGID_7_"  overflow="visible"/>
					</clipPath>
					<path opacity="0.2" clip-path="url(#SVGID_8_)" fill="#263238" enable-background="new    " d="M400,691.124
						c-189.063,0-342.813-152.813-343.75-341.874c0,0.625,0,1.25,0,1.875c0,189.687,154.063,343.749,343.75,343.749
						s343.75-154.063,343.75-343.749c0-0.625,0-1.25,0-1.875C742.813,538.312,589.375,691.124,400,691.124z"/>
				</g>
			</g>
			<g>
				<g>
					<defs>
						<path id="SVGID_9_" d="M672.813,702.374L672.813,702.374l-51.25-88.438C696.25,550.812,743.75,456.749,743.75,351.438
							C743.75,161.75,589.688,7.688,400,7.688S56.25,161.75,56.25,351.438c0,105.312,47.5,199.687,122.188,262.812l-51.25,88.438
							c-1.563,2.813-2.5,5.625-2.813,8.75L120,769.249c-0.313,2.188,0.938,4.063,2.813,5.313l0,0l0,0
							c1.875,1.25,4.063,0.938,5.938-0.313l48.125-32.5c2.5-1.875,4.688-4.063,6.25-6.563l0,0l48.438-83.75
							C281.25,679.562,338.75,695.499,400,695.499s118.75-16.25,168.75-44.375l48.438,83.75c1.563,2.813,3.75,5,6.25,6.563
							l48.125,32.813c1.875,1.25,4.063,1.25,5.938,0.313l0,0l0,0c1.875-1.25,2.813-3.125,2.813-5.313l-4.375-57.813
							C675.313,708.312,674.688,705.187,672.813,702.374z"/>
					</defs>
					<clipPath id="SVGID_10_">
						<use xlink:href="#SVGID_9_"  overflow="visible"/>
					</clipPath>
					<g clip-path="url(#SVGID_10_)">
						<rect x="16.25" y="347.375" fill="#263238" fill-opacity="0.05" width="767.5" height="4.063"/>
						<rect x="16.25" y="351.438" fill="#FFFFFF" fill-opacity="0.05" width="767.5" height="4.063"/>
					</g>
				</g>
			</g>
			<g>
				<g>
					<defs>
						<path id="SVGID_11_" d="M672.813,702.374L672.813,702.374l-51.25-88.438C696.25,550.812,743.75,456.749,743.75,351.438
							C743.75,161.75,589.688,7.688,400,7.688S56.25,161.75,56.25,351.438c0,105.312,47.5,199.687,122.188,262.812l-51.25,88.438
							c-1.563,2.813-2.5,5.625-2.813,8.75L120,769.249c-0.313,2.188,0.938,4.063,2.813,5.313l0,0l0,0
							c1.875,1.25,4.063,0.938,5.938-0.313l48.125-32.5c2.5-1.875,4.688-4.063,6.25-6.563l0,0l48.438-83.75
							C281.25,679.562,338.75,695.499,400,695.499s118.75-16.25,168.75-44.375l48.438,83.75c1.563,2.813,3.75,5,6.25,6.563
							l48.125,32.813c1.875,1.25,4.063,1.25,5.938,0.313l0,0l0,0c1.875-1.25,2.813-3.125,2.813-5.313l-4.375-57.813
							C675.313,708.312,674.688,705.187,672.813,702.374z"/>
					</defs>
					<clipPath id="SVGID_12_">
						<use xlink:href="#SVGID_11_"  overflow="visible"/>
					</clipPath>
					<g clip-path="url(#SVGID_12_)">
						
							<linearGradient id="SVGID_13_" gradientUnits="userSpaceOnUse" x1="-362.02" y1="858.5137" x2="116.3584" y2="1336.8923" gradientTransform="matrix(0.7997 0 0 0.7997 511.0504 -395.1201)">
							<stop  offset="0.33" style="stop-color:#263238;stop-opacity:0.16"/>
							<stop  offset="1" style="stop-color:#263238;stop-opacity:0"/>
						</linearGradient>
						<path fill="url(#SVGID_13_)" d="M647.813,352.063c0-0.313,0-0.625,0-0.625h-15.938L440,159.563l0,0l0,0h-40h-39.688v0.313
							v64.063H340c-19.688,0-35.938,16.25-35.938,35.938v81.563h0.313c-0.313,2.813,1.563,6.25,5.313,10.313
							c0.313,0.313,0.313,0.313,0.313,0.625l12.5,12.5L178.438,614.562c16.563,14.063,34.375,26.25,53.125,36.875
							c50,28.125,107.188,44.375,168.75,44.375c61.25,0,118.75-16.25,168.75-44.375c18.75-10.625,36.563-23.125,53.125-36.875
							c50.625-42.813,88.438-99.688,107.813-165c1.25-4.063,2.188-8.125,3.438-11.875L647.813,352.063z"/>
						
							<linearGradient id="SVGID_14_" gradientUnits="userSpaceOnUse" x1="-472.6182" y1="1151.6387" x2="-82.6187" y2="1013.3055" gradientTransform="matrix(0.7997 0 0 0.7997 511.0504 -395.1201)">
							<stop  offset="0.33" style="stop-color:#263238;stop-opacity:0.16"/>
							<stop  offset="1" style="stop-color:#263238;stop-opacity:0"/>
						</linearGradient>
						<path fill="url(#SVGID_14_)" d="M647.813,352.063c0-0.313,0-0.625,0-0.625h-15.938L440,159.563l0,0l0,0h-40h-39.688v0.313
							v64.063H340c-19.688,0-35.938,16.25-35.938,35.938v81.563h0.313c-0.313,2.813,1.563,6.25,5.313,10.313
							c0.313,0.313,0.313,0.313,0.313,0.625l12.5,12.5L178.438,614.562c16.563,14.063,34.375,26.25,53.125,36.875
							c50,28.125,107.188,44.375,168.75,44.375c61.25,0,118.75-16.25,168.75-44.375c18.75-10.625,36.563-23.125,53.125-36.875
							c50.625-42.813,88.438-99.688,107.813-165c1.25-4.063,2.188-8.125,3.438-11.875L647.813,352.063z"/>
					</g>
				</g>
			</g>
			<g>
				<g>
					<defs>
						<path id="SVGID_15_" d="M672.813,702.374L672.813,702.374l-51.25-88.438C696.25,550.812,743.75,456.749,743.75,351.438
							C743.75,161.75,589.688,7.688,400,7.688S56.25,161.75,56.25,351.438c0,105.312,47.5,199.687,122.188,262.812l-51.25,88.438
							c-1.563,2.813-2.5,5.625-2.813,8.75L120,769.249c-0.313,2.188,0.938,4.063,2.813,5.313l0,0l0,0
							c1.875,1.25,4.063,0.938,5.938-0.313l48.125-32.5c2.5-1.875,4.688-4.063,6.25-6.563l0,0l48.438-83.75
							C281.25,679.562,338.75,695.499,400,695.499s118.75-16.25,168.75-44.375l48.438,83.75c1.563,2.813,3.75,5,6.25,6.563
							l48.125,32.813c1.875,1.25,4.063,1.25,5.938,0.313l0,0l0,0c1.875-1.25,2.813-3.125,2.813-5.313l-4.375-57.813
							C675.313,708.312,674.688,705.187,672.813,702.374z"/>
					</defs>
					<clipPath id="SVGID_16_">
						<use xlink:href="#SVGID_15_"  overflow="visible"/>
					</clipPath>
					<g clip-path="url(#SVGID_16_)">
						<g>
							<path fill="#646464" d="M675.625,711.437c-0.313-3.125-1.25-5.938-2.813-8.75l0,0l-100-173.438
								c46.25-45,75.313-108.125,75.313-177.812h-64.063c0,45.625-16.875,87.499-44.688,119.999L477.5,364.563l12.5-12.5
								c4.063-4.063,5.625-7.813,5.625-10.625h0.313v-81.563c0-19.688-16.25-35.938-35.938-35.938h-20v-64.063v-0.313h-40h-39.688
								v0.313v64.063H340c-19.688,0-35.938,16.25-35.938,35.938v81.563h0.313c-0.313,3.125,1.563,6.563,5.625,10.625l12.5,12.5
								L127.188,702.374c-1.563,2.813-2.5,5.625-2.813,8.75L120,769.249c-0.313,2.188,0.938,4.063,2.813,5.313l0,0l0,0
								c1.875,1.25,4.063,0.938,5.938-0.313l48.125-32.5c2.5-1.875,4.688-4.063,6.25-6.563l0,0l96.563-167.188
								c35.625,20,76.875,31.563,120.625,31.563s85-11.563,120.625-31.563L617.5,734.874c1.563,2.813,3.75,5,6.25,6.563
								l48.125,32.813c1.875,1.25,4.063,1.25,5.938,0.313l0,0l0,0c1.875-1.25,2.813-3.125,2.813-5.313L675.625,711.437z M400,255.5
								v-0.625l0.313,0.625c26.25,0.313,47.813,21.563,47.813,48.125s-21.563,47.813-47.813,48.125H400l0,0
								c-26.25,0-47.813-21.563-47.813-48.125C352.188,276.75,373.438,255.5,400,255.5z M400,535.187
								c-32.188,0-62.5-8.438-88.438-22.813l58.125-100.625l12.188,12.188c5,5,11.563,7.5,17.813,7.5v-0.313l0.313,0.313
								c6.563,0,13.125-2.5,17.813-7.5L430,411.749l58.125,100.938C462.5,527.062,432.188,535.187,400,535.187z"/>
						</g>
					</g>
				</g>
			</g>
			<g>
				<g>
					<defs>
						<path id="SVGID_17_" d="M672.813,702.374L672.813,702.374l-51.25-88.438C696.25,550.812,743.75,456.749,743.75,351.438
							C743.75,161.75,589.688,7.688,400,7.688S56.25,161.75,56.25,351.438c0,105.312,47.5,199.687,122.188,262.812l-51.25,88.438
							c-1.563,2.813-2.5,5.625-2.813,8.75L120,769.249c-0.313,2.188,0.938,4.063,2.813,5.313l0,0l0,0
							c1.875,1.25,4.063,0.938,5.938-0.313l48.125-32.5c2.5-1.875,4.688-4.063,6.25-6.563l0,0l48.438-83.75
							C281.25,679.562,338.75,695.499,400,695.499s118.75-16.25,168.75-44.375l48.438,83.75c1.563,2.813,3.75,5,6.25,6.563
							l48.125,32.813c1.875,1.25,4.063,1.25,5.938,0.313l0,0l0,0c1.875-1.25,2.813-3.125,2.813-5.313l-4.375-57.813
							C675.313,708.312,674.688,705.187,672.813,702.374z"/>
					</defs>
					<clipPath id="SVGID_18_">
						<use xlink:href="#SVGID_17_"  overflow="visible"/>
					</clipPath>
					<g clip-path="url(#SVGID_18_)">
						<path fill="#E1E1E1" d="M675.625,711.437c-0.313-3.125-1.25-5.938-2.813-8.75l0,0l-100-173.438l-33.125-57.813
							l-61.875-106.874l-47.188,47.187l58.125,100.938l31.875,55.313l96.563,166.875c1.563,2.813,3.75,5,6.25,6.563l48.125,32.813
							c1.875,1.25,4.063,1.25,5.938,0.313l0,0l0,0c1.875-1.25,2.813-3.125,2.813-5.313L675.625,711.437z"/>
						<path fill="#FFFFFF" fill-opacity="0.4" d="M539.375,475.187l33.125,57.813l100.313,173.438l0,0
							c1.563,2.813,2.5,5.625,2.813,8.75l4.063,55c0-0.313,0.313-0.625,0.313-1.25l-4.375-57.813
							c-0.313-3.125-1.25-5.938-2.813-8.75l0,0l-100-173.438l-33.125-57.813L477.813,364.25l-1.875,2.188L539.375,475.187z"/>
						<path fill="#262626" fill-opacity="0.2" d="M677.188,770.187L677.188,770.187L677.188,770.187
							c-1.875,1.25-4.063,0.938-5.938-0.313l-48.125-32.813c-2.5-1.875-4.688-4.063-6.25-6.563l-96.563-166.875l-31.875-55.313
							l-56.25-98.125l-1.563,1.563l58.125,100.938l31.875,55.313l96.563,166.875c1.563,2.813,3.75,5,6.25,6.563l48.125,32.813
							c1.875,1.25,4.063,1.25,5.938,0.313l0,0l0,0c1.875-1.25,2.813-3.125,2.813-5.313L680,766.437
							C679.375,767.999,678.75,769.562,677.188,770.187z"/>
						<path fill="#F1F1F1" d="M584.063,351.438c0,45.625-16.875,87.499-44.688,119.999c-14.375,16.563-31.25,30.625-50.625,41.25
							c-26.25,14.688-56.563,22.813-88.75,22.813s-62.5-8.438-88.438-22.813l58.125-100.938L322.5,364.563L127.188,702.687
							c-1.563,2.813-2.5,5.625-2.813,8.75L120,769.562c-0.313,2.188,0.938,4.063,2.813,5.313l0,0l0,0
							c1.875,1.25,4.063,0.938,5.938-0.313l48.125-32.5c2.5-1.875,4.688-4.063,6.25-6.563l0,0l96.563-167.188
							c35.625,20,76.875,31.563,120.625,31.563s85-11.563,120.625-31.563c19.063-10.625,36.563-23.75,51.875-38.75
							c46.25-45,75.313-108.125,75.313-177.812L584.063,351.438L584.063,351.438z"/>
						<path fill="none" d="M418.125,423.937c-5,5-11.563,7.5-17.813,7.5L400,431.124v0.313c-6.563,0-13.125-2.5-17.813-7.5
							L370,411.749l-58.125,100.625c26.25,14.688,56.563,22.813,88.438,22.813s62.5-8.438,88.75-22.813l-58.125-100.938
							L418.125,423.937z"/>
						<g>
							<path fill="#FFFFFF" fill-opacity="0.4" d="M127.188,706.437l197.5-340.312l-2.188-1.875L127.188,702.374
								c-1.563,2.813-2.5,5.625-2.813,8.75L120,769.249c0,0.313,0.313,0.625,0.313,1.25l4.063-55
								C125,712.374,125.625,709.249,127.188,706.437z"/>
							<path fill="#FFFFFF" fill-opacity="0.4" d="M400,539.249c32.188,0,62.5-8.438,88.75-22.813
								c19.063-10.625,36.25-24.688,50.625-41.25c27.813-32.188,44.688-74.063,44.688-119.999h63.75c0-1.25,0.313-2.813,0.313-4.063
								h-64.063c0,45.625-16.875,87.499-44.688,119.999c-14.375,16.563-31.25,30.625-50.625,41.25
								c-26.25,14.688-56.563,22.813-88.75,22.813c-31.563,0-60.938-8.125-86.875-22.188l-1.875,3.125
								C337.813,530.812,368.125,539.249,400,539.249z"/>
							<path fill="#262626" fill-opacity="0.2" d="M311.563,512.062l58.125-100.313l-1.563-1.563l-58.438,100.938
								C310.313,511.437,310.938,511.749,311.563,512.062z"/>
							<path fill="#262626" fill-opacity="0.2" d="M572.813,524.874c-15.625,15-32.813,28.125-51.875,38.75
								c-35.625,20-76.875,31.563-120.625,31.563s-85-11.563-120.625-31.563l-96.563,167.188l0,0c-1.563,2.813-3.75,5-6.25,6.563
								l-48.125,32.5c-1.875,1.25-4.063,1.25-5.938,0.313l0,0l0,0c-1.563-0.938-2.188-2.5-2.5-4.063L120,768.937
								c-0.313,2.188,0.938,4.063,2.813,5.313l0,0l0,0c1.875,0.938,4.063,0.938,5.938-0.313l48.125-32.5
								c2.5-1.875,4.688-4.063,6.25-6.563l0,0l96.563-167.188c35.625,20,76.875,31.563,120.625,31.563s85-11.563,120.625-31.563
								c19.063-10.625,36.563-23.75,51.875-38.75c46.25-45,75.313-108.125,75.313-177.812h-0.313
								C646.875,419.249,618.125,480.812,572.813,524.874z"/>
						</g>
						<path fill="#646464" d="M460,223.625h-20v-64.063v-0.313h-40h-39.688v0.313v64.063H340c-19.688,0-35.938,16.25-35.938,35.938
							v81.563h0.313c-0.313,3.125,1.563,6.563,5.625,10.625l72.188,72.187c5,5,11.563,7.5,17.813,7.5v-0.313l0.313,0.313
							c6.563,0,13.125-2.5,17.813-7.5l72.188-72.187c4.063-4.063,5.625-7.813,5.625-10.625h0.313v-81.25
							C495.938,239.875,480,223.625,460,223.625z M400.313,351.438H400l0,0c-26.25,0-47.813-21.563-47.813-48.125
							S373.75,255.188,400,255.188v-0.625l0.313,0.625c26.25,0.313,47.813,21.563,47.813,48.125S426.563,351.125,400.313,351.438z"
							/>
						<path opacity="0.2" fill="#FFFFFF" enable-background="new    " d="M440,163.313v-3.75v-0.313h-40h-39.688v0.313v3.75H400H440
							z"/>
						<path fill="#FFFFFF" fill-opacity="0.2" d="M400.313,347.375H400l0,0c-25.625,0-46.563-20.625-47.813-45.938
							c0,0.625-0.313,1.25-0.313,1.875c0,26.25,21.563,48.125,47.813,48.125l0,0H400c26.25-0.313,47.813-21.563,47.813-48.125
							c0-0.625,0-1.25-0.313-1.875C446.875,326.75,425.938,347.063,400.313,347.375z"/>
						<path opacity="0.2" fill="#FFFFFF" enable-background="new    " d="M340.313,227.688h20.313v-4.063h-20.313
							c-19.688,0-35.938,16.25-35.938,35.938v4.063C304.063,243.938,320.313,227.688,340.313,227.688z"/>
						<path opacity="0.2" fill="#FFFFFF" enable-background="new    " d="M460,223.625h-20v4.063h20
							c19.688,0,35.938,16.25,35.938,35.938v-3.75C495.938,239.875,480,223.625,460,223.625z"/>
						<path opacity="0.2" fill="#262626" enable-background="new    " d="M400.313,255.5L400,254.875v0.625
							c-26.25,0-47.813,21.563-47.813,48.125c0,0.625,0,1.25,0.313,1.875c1.25-25.625,22.188-45.938,47.813-45.938v-0.625
							l0.313,0.625c25.625,0.313,46.563,20.625,47.5,45.938c0-0.625,0.313-1.25,0.313-1.875
							C448.125,277.063,426.563,255.5,400.313,255.5z"/>
						<path fill="#262626" fill-opacity="0.2" d="M490.313,348l-72.188,72.187c-5,5-11.563,7.5-17.813,7.5L400,427.374v0.313
							c-6.563,0-13.125-2.5-17.813-7.5L310,348c-4.063-4.063-5.625-7.813-5.625-10.625h-0.313v4.063h0.313
							c-0.313,3.125,1.563,6.563,5.625,10.625l72.188,71.874c5,5,11.563,7.5,17.813,7.5v-0.313l0.313,0.313
							c6.563,0,13.125-2.5,17.813-7.5l72.188-72.187c4.063-4.063,5.625-7.813,5.625-10.625h0.313v-4.063h-0.313
							C495.938,340.188,494.375,343.938,490.313,348z"/>
						<path fill="none" d="M400,351.438L400,351.438h0.313c26.25-0.313,47.813-21.563,47.813-48.125s-21.563-47.813-47.813-48.125
							L400,254.563v0.625c-26.25,0-47.813,21.563-47.813,48.125S373.438,351.438,400,351.438z"/>
					</g>
				</g>
			</g>
		</g>
		
			<radialGradient id="SVGID_19_" cx="-441.7446" cy="658.4824" r="1061.7498" gradientTransform="matrix(0.7997 0 0 0.7997 511.0504 -395.1201)" gradientUnits="userSpaceOnUse">
			<stop  offset="0" style="stop-color:#FFFFFF"/>
			<stop  offset="1" style="stop-color:#FFFFFF;stop-opacity:0"/>
		</radialGradient>
		<path fill="url(#SVGID_19_)" fill-opacity="0.1" d="M672.813,702.374L672.813,702.374l-51.25-88.438
			C696.25,550.812,743.75,456.749,743.75,351.438C743.75,161.75,589.688,7.688,400,7.688S56.25,161.75,56.25,351.438
			c0,105.312,47.5,199.687,122.188,262.812l-51.25,88.438c-1.563,2.813-2.5,5.625-2.813,8.75L120,769.249
			c-0.313,2.188,0.938,4.063,2.813,5.313l0,0l0,0c1.875,1.25,4.063,0.938,5.938-0.313l48.125-32.5c2.5-1.875,4.688-4.063,6.25-6.563
			l0,0l48.438-83.75C281.25,679.562,338.75,695.499,400,695.499s118.75-16.25,168.75-44.375l48.438,83.75
			c1.563,2.813,3.75,5,6.25,6.563l48.125,32.813c1.875,1.25,4.063,1.25,5.938,0.313l0,0l0,0c1.875-1.25,2.813-3.125,2.813-5.313
			l-4.375-57.813C675.313,708.312,674.688,705.187,672.813,702.374z"/>
	</g>
	<rect x="16.25" y="7.688" fill="none" width="767.5" height="767.499"/>
</g>
</svg>
