<?xml version="1.0" encoding="utf-8"?>
<!-- Generator: Adobe Illustrator 16.0.0, SVG Export Plug-In . SVG Version: 6.00 Build 0)  -->
<!DOCTYPE svg PUBLIC "-//W3C//DTD SVG 1.1//EN" "http://www.w3.org/Graphics/SVG/1.1/DTD/svg11.dtd">
<svg version="1.1" id="Layer_1" xmlns="http://www.w3.org/2000/svg" xmlns:xlink="http://www.w3.org/1999/xlink" x="0px" y="0px"
	 width="595.84px" height="640px" viewBox="102.08 96 595.84 640" enable-background="new 102.08 96 595.84 640"
	 xml:space="preserve">
<g>
	<polygon fill="#DD0031" points="400,96 400,96 400,96 102.08,202.24 147.52,596.16 400,736 400,736 400,736 652.48,596.16 
		697.92,202.24 	"/>
	<polygon fill="#C3002F" points="400,96 400,167.04 400,166.72 400,490.88 400,490.88 400,736 400,736 652.48,596.16 697.92,202.24 
			"/>
	<path fill="#FFFFFF" d="M400,166.72L213.76,584.32l0,0h69.44l0,0l37.439-93.44h158.08l37.44,93.44l0,0H585.6l0,0L400,166.72
		L400,166.72L400,166.72L400,166.72L400,166.72z M454.4,433.28H345.6L400,302.4L454.4,433.28z"/>
</g>
</svg>
