<?xml version="1.0" encoding="utf-8"?>
<!-- Generator: Adobe Illustrator 16.0.0, SVG Export Plug-In . SVG Version: 6.00 Build 0)  -->
<!DOCTYPE svg PUBLIC "-//W3C//DTD SVG 1.1//EN" "http://www.w3.org/Graphics/SVG/1.1/DTD/svg11.dtd">
<svg version="1.1" id="Layer_1" xmlns="http://www.w3.org/2000/svg" xmlns:xlink="http://www.w3.org/1999/xlink" x="0px" y="0px"
	 width="1635.311px" height="1963.784px" viewBox="234.841 0 1635.311 1963.784"
	 enable-background="new 234.841 0 1635.311 1963.784" xml:space="preserve">
<path fill="#EE4323" d="M760.925,1963.652c-117.749-50.898-227.933-180.257-228.195-312.617
	c-0.32-144.308,91.132-266.825,204.876-347.342c-13.675,51.664-21.133,98.919,12.745,145.131
	c31.492,42.963,86.65,63.84,138.732,52.51c121.695-26.642,127.278-160.424,55.133-238.367
	c-71.331-77.186-140.336-164.371-113.185-276.306c13.592-56.111,48.045-108.671,91.69-146.24
	c-33.548,88.164,61.785,175.11,124.599,218.419c108.958,75.139,228.507,131.924,328.691,220.005
	c105.382,92.571,183.201,217.736,167.488,362.907c-17.029,157.349-142.063,266.784-282.309,322.032
	c296.36-65.411,602.58-295.424,608.854-624.1c5.196-270.402-180.298-478.501-410.081-597.64l-12.005-6.553
	c6.307,15.302,8.371,28.318,8.133,39.97c2.056-8.593,3.453-17.424,3.848-26.534c-0.056,10.823-1.47,21.598-4.21,32.068l0.362-5.534
	c-3.412,14.356-9.159,28.054-17.013,40.546l3.371-3.626c-45.841,76.035-169.945,92.546-231.254,13.814
	c-98.557-126.646,2.063-263.191,16.141-397.303C1244.959,260.814,1139.553,97.644,1008.862,0
	c71.981,116.441-22.851,270.493-98.722,356.617c-73.567,83.485-163.038,153.188-244.254,229.042
	c-87.242,81.471-171.113,167.29-242.822,262.912c-143.42,191.391-231.222,432.1-166.698,670.869
	c64.481,238.605,271.167,390.494,504.566,444.205L760.925,1963.652z"/>
</svg>
