<?xml version="1.0" encoding="utf-8"?>
<!-- Generator: Adobe Illustrator 16.0.0, SVG Export Plug-In . SVG Version: 6.00 Build 0)  -->
<!DOCTYPE svg PUBLIC "-//W3C//DTD SVG 1.1//EN" "http://www.w3.org/Graphics/SVG/1.1/DTD/svg11.dtd">
<svg version="1.1" id="Layer_1" xmlns="http://www.w3.org/2000/svg" xmlns:xlink="http://www.w3.org/1999/xlink" x="0px" y="0px"
	 width="306px" height="344.35px" viewBox="0 0 306 344.35" enable-background="new 0 0 306 344.35" xml:space="preserve">
<path fill="#9B0000" d="M302.107,258.262c2.4-4.159,3.893-8.845,3.893-13.053V99.14c0-4.208-1.49-8.893-3.893-13.052L153,172.175
	L302.107,258.262z"/>
<path fill="#7F0000" d="M166.25,341.193l126.5-73.033c3.645-2.104,6.956-5.737,9.357-9.897L153,172.175L3.893,258.263
	c2.401,4.159,5.714,7.793,9.357,9.896l126.5,73.033C147.037,345.401,158.963,345.401,166.25,341.193z"/>
<path fill="#D16666" d="M302.107,86.087c-2.401-4.16-5.715-7.793-9.357-9.897L166.25,3.156c-7.287-4.208-19.213-4.208-26.5,0
	L13.25,76.19C5.962,80.397,0,90.725,0,99.14v146.069c0,4.208,1.491,8.894,3.893,13.053L153,172.175L302.107,86.087z"/>
<g>
	<path fill="#FFFFFF" d="M153,274.175c-56.243,0-102-45.757-102-102s45.757-102,102-102c36.292,0,70.139,19.53,88.331,50.968
		l-44.144,25.544c-9.104-15.735-26.037-25.512-44.188-25.512c-28.122,0-51,22.878-51,51c0,28.121,22.878,51,51,51
		c18.152,0,35.085-9.776,44.191-25.515l44.143,25.543C223.143,254.644,189.294,274.175,153,274.175z"/>
</g>
<path fill="#FFFFFF" d="M276.609,204.446c-1.791,0-3.585-0.043-5.373,0.02c-0.766,0.026-0.903-0.231-0.897-0.935
	c0.035-3.55-0.008-7.1,0.035-10.649c0.01-0.775-0.207-0.971-0.968-0.962c-3.55,0.04-7.101,0.039-10.65,0.002
	c-0.716-0.008-0.937,0.155-0.927,0.904c0.043,3.55,0,7.1,0.034,10.649c0.007,0.725-0.123,1.003-0.938,0.991
	c-3.582-0.05-7.165-0.04-10.747-0.004c-0.702,0.008-0.858-0.205-0.854-0.876c0.032-3.583-0.006-7.166,0.033-10.748
	c0.008-0.727-0.175-0.928-0.912-0.92c-3.582,0.041-7.166,0.003-10.748,0.033c-0.659,0.007-0.89-0.135-0.882-0.846
	c0.036-3.614,0.036-7.23,0-10.846c-0.009-0.711,0.222-0.851,0.882-0.847c3.583,0.032,7.166-0.007,10.748,0.034
	c0.738,0.008,0.92-0.193,0.912-0.92c-0.039-3.582-0.035-7.165-0.002-10.747c0.006-0.671-0.154-0.883-0.854-0.877
	c-3.582,0.038-7.165,0-10.748,0.033c-0.692,0.006-0.952-0.114-0.941-0.889c0.046-3.582,0.044-7.166,0.001-10.748
	c-0.009-0.751,0.214-0.911,0.928-0.904c3.581,0.037,7.164-0.001,10.747,0.032c0.682,0.007,0.875-0.169,0.868-0.861
	c-0.035-3.582,0.003-7.166-0.032-10.748c-0.007-0.703,0.134-0.944,0.896-0.935c3.582,0.045,7.166,0.044,10.748,0
	c0.763-0.009,0.904,0.231,0.896,0.934c-0.035,3.583,0.002,7.166-0.033,10.749c-0.007,0.691,0.188,0.867,0.868,0.86
	c3.583-0.033,7.167-0.036,10.748,0.001c0.716,0.008,0.936-0.155,0.927-0.905c-0.041-3.549,0-7.101-0.034-10.65
	c-0.007-0.725,0.124-1.002,0.938-0.992c3.582,0.05,7.166,0.041,10.749,0.005c0.702-0.007,0.858,0.206,0.852,0.876
	c-0.031,3.583,0.007,7.166-0.032,10.748c-0.008,0.727,0.174,0.927,0.912,0.919c3.582-0.041,7.165-0.002,10.748-0.034
	c0.66-0.005,0.89,0.136,0.883,0.847c-0.037,3.615-0.037,7.231,0,10.846c0.007,0.711-0.223,0.852-0.883,0.847
	c-3.583-0.032-7.166,0.007-10.748-0.034c-0.739-0.008-0.92,0.194-0.912,0.92c0.039,3.582,0.035,7.166,0.002,10.748
	c-0.006,0.671,0.154,0.882,0.855,0.875c3.582-0.036,7.165,0,10.747-0.032c0.692-0.008,0.952,0.114,0.941,0.89
	c-0.046,3.582-0.044,7.165-0.001,10.748c0.009,0.75-0.214,0.91-0.928,0.902c-3.583-0.037-7.165,0.002-10.748-0.032
	c-0.681-0.006-0.874,0.171-0.868,0.861c0.035,3.583-0.002,7.166,0.033,10.748c0.007,0.703-0.132,0.961-0.897,0.934
	C280.194,204.403,278.4,204.447,276.609,204.446z"/>
<path fill="#9B0000" d="M264.012,178.742c-1.593,0-3.186-0.016-4.779,0.01c-0.487,0.006-0.718-0.064-0.712-0.646
	c0.028-3.303,0.02-6.604,0.005-9.907c-0.002-0.443,0.112-0.603,0.58-0.6c3.332,0.018,6.663,0.019,9.995,0
	c0.474-0.003,0.578,0.166,0.575,0.603c-0.014,3.304-0.022,6.605,0.008,9.908c0.004,0.587-0.236,0.648-0.717,0.643
	C267.314,178.729,265.663,178.742,264.012,178.742z"/>
</svg>
