<?xml version="1.0" encoding="utf-8"?>
<!-- Generator: Adobe Illustrator 16.0.0, SVG Export Plug-In . SVG Version: 6.00 Build 0)  -->
<!DOCTYPE svg PUBLIC "-//W3C//DTD SVG 1.1//EN" "http://www.w3.org/Graphics/SVG/1.1/DTD/svg11.dtd">
<svg version="1.1" id="Layer_1" xmlns="http://www.w3.org/2000/svg" xmlns:xlink="http://www.w3.org/1999/xlink" x="0px" y="0px"
	 width="800px" height="800px" viewBox="0 0 800 800" enable-background="new 0 0 800 800" xml:space="preserve">
<g>
	<g>
		<path fill-rule="evenodd" clip-rule="evenodd" fill="#EFDA4F" d="M0.761,800.76c0-266.412,0-532.826,0-799.239
			c1.315-0.709,2.738-0.36,4.105-0.36C268.481,1.143,532.096,1.143,795.71,1.149c5.219,0,4.661-0.539,4.661,4.669
			c0.006,263.615,0.006,527.229-0.005,790.843c0,1.37,0.217,2.763-0.236,4.111c-1.321,0.681-2.741,0.347-4.111,0.347
			c-263.716,0.018-527.433,0.018-791.15-0.001C3.501,801.119,2.077,801.469,0.761,800.76z"/>
		<path fill-rule="evenodd" clip-rule="evenodd" fill="#FDFBF0" d="M799.841,800.682c0.063-1.645,0.18-3.288,0.18-4.932
			c0.008-262.942,0.01-525.885-0.006-788.828c0-6.246,0.809-5.36-5.484-5.36C531.715,1.545,268.899,1.548,6.083,1.546
			c-1.773,0-3.548-0.017-5.322-0.025c0.166-0.234-0.384-0.793,0.38-0.769C2.154,0.785,3.168,0.76,4.182,0.76
			c264.323,0,528.646,0.007,792.968-0.083c3.083-0.001,3.695,0.613,3.695,3.695c-0.091,265.463-0.084,530.925-0.084,796.388
			C800.42,801.135,800.113,801.107,799.841,800.682z"/>
		<path fill-rule="evenodd" clip-rule="evenodd" fill="#FFFFFF" d="M799.841,800.682c0.307,0.025,0.613,0.052,0.92,0.078
			c-0.166,0.234,0.385,0.793-0.381,0.769c-1.013-0.032-2.027-0.008-3.041-0.008c-264.386,0-528.771,0.001-793.155-0.047
			c-1.113-0.001-2.579,0.877-3.423-0.714c0.886-0.03,1.772-0.088,2.657-0.088C268.892,800.672,534.366,800.677,799.841,800.682z"/>
		<path fill-rule="evenodd" clip-rule="evenodd" fill="#333431" d="M612.808,737.385c-32.159-0.29-62.123-6.662-89.152-23.876
			c-19.661-12.521-34.801-29.223-46.027-49.604c-1.467-2.664-0.861-3.707,1.573-5.099c18.348-10.486,36.646-21.061,54.872-31.756
			c2.422-1.421,3.467-1.244,4.982,1.17c8.098,12.906,17.697,24.554,31.155,32.151c21.619,12.204,44.426,13.972,67.728,5.65
			c11.086-3.958,19.413-11.454,22.83-23.216c4.059-13.971-0.845-28.067-12.832-37.518c-8.729-6.882-18.78-11.408-28.789-16.005
			c-19.299-8.861-39.329-16.116-57.947-26.469c-15.507-8.623-29.78-18.796-41.014-32.747
			c-16.004-19.879-21.896-43.009-21.528-68.057c0.693-47.31,30.393-83.664,77.523-94.559c24.375-5.634,48.813-5.12,72.938,1.491
			c29.297,8.029,49.747,27.163,64.834,52.8c1.1,1.867,0.441,2.531-1.06,3.492c-17.919,11.456-35.832,22.923-53.658,34.521
			c-2.302,1.498-3.096,0.774-4.229-1.208c-3.47-6.069-7.471-11.785-12.641-16.548c-14.318-13.194-31.147-16.2-49.069-10.057
			c-25.816,8.848-24.988,39.922-12.313,52.904c5.485,5.617,11.986,9.701,18.869,13.259c14.96,7.73,30.74,13.631,46.056,20.568
			c18.943,8.581,37.412,17.974,53.678,31.184c21.742,17.656,34.063,40.294,36.692,68.259c1.954,20.792,0.239,41.006-8.937,60.064
			c-11.541,23.976-30.842,39.328-55.205,48.878C652.885,734.607,632.772,737.232,612.808,737.385z"/>
		<path fill-rule="evenodd" clip-rule="evenodd" fill="#333431" d="M434.973,504.439c0,43.464,0.235,86.93-0.124,130.392
			c-0.13,15.788-3.646,31.142-10.089,45.666c-10.27,23.152-27.208,39.646-51,48.168c-34.937,12.514-70.1,12.347-104.561-1.809
			c-26.331-10.815-44.673-30.429-57.317-55.656c-0.923-1.842-0.813-2.722,1.036-3.83c18.881-11.327,37.734-22.703,56.509-34.205
			c2.196-1.346,2.839-0.697,3.891,1.176c4.152,7.398,8.677,14.534,14.084,21.138c15.189,18.55,40.856,17.24,54.894,10.482
			c10.593-5.1,14.594-14.935,16.595-25.775c1.176-6.368,1.458-12.823,1.457-19.297c-0.01-82.748,0.026-165.497-0.108-248.246
			c-0.006-3.931,1.053-4.702,4.781-4.671c22.174,0.186,44.352,0.152,66.526,0.02c3.009-0.018,3.756,0.813,3.75,3.771
			c-0.094,44.226-0.065,88.451-0.065,132.677C435.146,504.439,435.06,504.439,434.973,504.439z"/>
	</g>
</g>
</svg>
